<?xml version="1.0" encoding="utf-8" standalone="no"?>
<!DOCTYPE svg PUBLIC "-//W3C//DTD SVG 1.1//EN"
  "http://www.w3.org/Graphics/SVG/1.1/DTD/svg11.dtd">
<!-- Created with matplotlib (https://matplotlib.org/) -->
<svg height="333.616875pt" version="1.1" viewBox="0 0 418.653125 333.616875" width="418.653125pt" xmlns="http://www.w3.org/2000/svg" xmlns:xlink="http://www.w3.org/1999/xlink">
 <defs>
  <style type="text/css">
*{stroke-linecap:butt;stroke-linejoin:round;}
  </style>
 </defs>
 <g id="figure_1">
  <g id="patch_1">
   <path d="M 0 333.616875 
L 418.653125 333.616875 
L 418.653125 0 
L 0 0 
z
" style="fill:#ffffff;"/>
  </g>
  <g id="axes_1">
   <g id="patch_2">
    <path d="M 50.833125 290.25375 
L 407.953125 290.25375 
L 407.953125 24.14175 
L 50.833125 24.14175 
z
" style="fill:#ffffff;"/>
   </g>
   <g id="matplotlib.axis_1">
    <g id="xtick_1">
     <g id="line2d_1">
      <defs>
       <path d="M 0 0 
L 0 3.5 
" id="m3db279b946" style="stroke:#000000;stroke-width:0.8;"/>
      </defs>
      <g>
       <use style="stroke:#000000;stroke-width:0.8;" x="51.229045" xlink:href="#m3db279b946" y="290.25375"/>
      </g>
     </g>
     <g id="text_1">
      <!-- 0.0 -->
      <defs>
       <path d="M 31.78125 66.40625 
Q 24.171875 66.40625 20.328125 58.90625 
Q 16.5 51.421875 16.5 36.375 
Q 16.5 21.390625 20.328125 13.890625 
Q 24.171875 6.390625 31.78125 6.390625 
Q 39.453125 6.390625 43.28125 13.890625 
Q 47.125 21.390625 47.125 36.375 
Q 47.125 51.421875 43.28125 58.90625 
Q 39.453125 66.40625 31.78125 66.40625 
z
M 31.78125 74.21875 
Q 44.046875 74.21875 50.515625 64.515625 
Q 56.984375 54.828125 56.984375 36.375 
Q 56.984375 17.96875 50.515625 8.265625 
Q 44.046875 -1.421875 31.78125 -1.421875 
Q 19.53125 -1.421875 13.0625 8.265625 
Q 6.59375 17.96875 6.59375 36.375 
Q 6.59375 54.828125 13.0625 64.515625 
Q 19.53125 74.21875 31.78125 74.21875 
z
" id="DejaVuSans-48"/>
       <path d="M 10.6875 12.40625 
L 21 12.40625 
L 21 0 
L 10.6875 0 
z
" id="DejaVuSans-46"/>
      </defs>
      <g transform="translate(41.68717 306.371875)scale(0.12 -0.12)">
       <use xlink:href="#DejaVuSans-48"/>
       <use x="63.623047" xlink:href="#DejaVuSans-46"/>
       <use x="95.410156" xlink:href="#DejaVuSans-48"/>
      </g>
     </g>
    </g>
    <g id="xtick_2">
     <g id="line2d_2">
      <g>
       <use style="stroke:#000000;stroke-width:0.8;" x="130.413081" xlink:href="#m3db279b946" y="290.25375"/>
      </g>
     </g>
     <g id="text_2">
      <!-- 0.5 -->
      <defs>
       <path d="M 10.796875 72.90625 
L 49.515625 72.90625 
L 49.515625 64.59375 
L 19.828125 64.59375 
L 19.828125 46.734375 
Q 21.96875 47.46875 24.109375 47.828125 
Q 26.265625 48.1875 28.421875 48.1875 
Q 40.625 48.1875 47.75 41.5 
Q 54.890625 34.8125 54.890625 23.390625 
Q 54.890625 11.625 47.5625 5.09375 
Q 40.234375 -1.421875 26.90625 -1.421875 
Q 22.3125 -1.421875 17.546875 -0.640625 
Q 12.796875 0.140625 7.71875 1.703125 
L 7.71875 11.625 
Q 12.109375 9.234375 16.796875 8.0625 
Q 21.484375 6.890625 26.703125 6.890625 
Q 35.15625 6.890625 40.078125 11.328125 
Q 45.015625 15.765625 45.015625 23.390625 
Q 45.015625 31 40.078125 35.4375 
Q 35.15625 39.890625 26.703125 39.890625 
Q 22.75 39.890625 18.8125 39.015625 
Q 14.890625 38.140625 10.796875 36.28125 
z
" id="DejaVuSans-53"/>
      </defs>
      <g transform="translate(120.871206 306.371875)scale(0.12 -0.12)">
       <use xlink:href="#DejaVuSans-48"/>
       <use x="63.623047" xlink:href="#DejaVuSans-46"/>
       <use x="95.410156" xlink:href="#DejaVuSans-53"/>
      </g>
     </g>
    </g>
    <g id="xtick_3">
     <g id="line2d_3">
      <g>
       <use style="stroke:#000000;stroke-width:0.8;" x="209.597116" xlink:href="#m3db279b946" y="290.25375"/>
      </g>
     </g>
     <g id="text_3">
      <!-- 1.0 -->
      <defs>
       <path d="M 12.40625 8.296875 
L 28.515625 8.296875 
L 28.515625 63.921875 
L 10.984375 60.40625 
L 10.984375 69.390625 
L 28.421875 72.90625 
L 38.28125 72.90625 
L 38.28125 8.296875 
L 54.390625 8.296875 
L 54.390625 0 
L 12.40625 0 
z
" id="DejaVuSans-49"/>
      </defs>
      <g transform="translate(200.055241 306.371875)scale(0.12 -0.12)">
       <use xlink:href="#DejaVuSans-49"/>
       <use x="63.623047" xlink:href="#DejaVuSans-46"/>
       <use x="95.410156" xlink:href="#DejaVuSans-48"/>
      </g>
     </g>
    </g>
    <g id="xtick_4">
     <g id="line2d_4">
      <g>
       <use style="stroke:#000000;stroke-width:0.8;" x="288.781152" xlink:href="#m3db279b946" y="290.25375"/>
      </g>
     </g>
     <g id="text_4">
      <!-- 1.5 -->
      <g transform="translate(279.239277 306.371875)scale(0.12 -0.12)">
       <use xlink:href="#DejaVuSans-49"/>
       <use x="63.623047" xlink:href="#DejaVuSans-46"/>
       <use x="95.410156" xlink:href="#DejaVuSans-53"/>
      </g>
     </g>
    </g>
    <g id="xtick_5">
     <g id="line2d_5">
      <g>
       <use style="stroke:#000000;stroke-width:0.8;" x="367.965187" xlink:href="#m3db279b946" y="290.25375"/>
      </g>
     </g>
     <g id="text_5">
      <!-- 2.0 -->
      <defs>
       <path d="M 19.1875 8.296875 
L 53.609375 8.296875 
L 53.609375 0 
L 7.328125 0 
L 7.328125 8.296875 
Q 12.9375 14.109375 22.625 23.890625 
Q 32.328125 33.6875 34.8125 36.53125 
Q 39.546875 41.84375 41.421875 45.53125 
Q 43.3125 49.21875 43.3125 52.78125 
Q 43.3125 58.59375 39.234375 62.25 
Q 35.15625 65.921875 28.609375 65.921875 
Q 23.96875 65.921875 18.8125 64.3125 
Q 13.671875 62.703125 7.8125 59.421875 
L 7.8125 69.390625 
Q 13.765625 71.78125 18.9375 73 
Q 24.125 74.21875 28.421875 74.21875 
Q 39.75 74.21875 46.484375 68.546875 
Q 53.21875 62.890625 53.21875 53.421875 
Q 53.21875 48.921875 51.53125 44.890625 
Q 49.859375 40.875 45.40625 35.40625 
Q 44.1875 33.984375 37.640625 27.21875 
Q 31.109375 20.453125 19.1875 8.296875 
z
" id="DejaVuSans-50"/>
      </defs>
      <g transform="translate(358.423312 306.371875)scale(0.12 -0.12)">
       <use xlink:href="#DejaVuSans-50"/>
       <use x="63.623047" xlink:href="#DejaVuSans-46"/>
       <use x="95.410156" xlink:href="#DejaVuSans-48"/>
      </g>
     </g>
    </g>
    <g id="text_6">
     <!-- Test $\epsilon$ -->
     <defs>
      <path d="M -0.296875 72.90625 
L 61.375 72.90625 
L 61.375 64.59375 
L 35.5 64.59375 
L 35.5 0 
L 25.59375 0 
L 25.59375 64.59375 
L -0.296875 64.59375 
z
" id="DejaVuSans-84"/>
      <path d="M 56.203125 29.59375 
L 56.203125 25.203125 
L 14.890625 25.203125 
Q 15.484375 15.921875 20.484375 11.0625 
Q 25.484375 6.203125 34.421875 6.203125 
Q 39.59375 6.203125 44.453125 7.46875 
Q 49.3125 8.734375 54.109375 11.28125 
L 54.109375 2.78125 
Q 49.265625 0.734375 44.1875 -0.34375 
Q 39.109375 -1.421875 33.890625 -1.421875 
Q 20.796875 -1.421875 13.15625 6.1875 
Q 5.515625 13.8125 5.515625 26.8125 
Q 5.515625 40.234375 12.765625 48.109375 
Q 20.015625 56 32.328125 56 
Q 43.359375 56 49.78125 48.890625 
Q 56.203125 41.796875 56.203125 29.59375 
z
M 47.21875 32.234375 
Q 47.125 39.59375 43.09375 43.984375 
Q 39.0625 48.390625 32.421875 48.390625 
Q 24.90625 48.390625 20.390625 44.140625 
Q 15.875 39.890625 15.1875 32.171875 
z
" id="DejaVuSans-101"/>
      <path d="M 44.28125 53.078125 
L 44.28125 44.578125 
Q 40.484375 46.53125 36.375 47.5 
Q 32.28125 48.484375 27.875 48.484375 
Q 21.1875 48.484375 17.84375 46.4375 
Q 14.5 44.390625 14.5 40.28125 
Q 14.5 37.15625 16.890625 35.375 
Q 19.28125 33.59375 26.515625 31.984375 
L 29.59375 31.296875 
Q 39.15625 29.25 43.1875 25.515625 
Q 47.21875 21.78125 47.21875 15.09375 
Q 47.21875 7.46875 41.1875 3.015625 
Q 35.15625 -1.421875 24.609375 -1.421875 
Q 20.21875 -1.421875 15.453125 -0.5625 
Q 10.6875 0.296875 5.421875 2 
L 5.421875 11.28125 
Q 10.40625 8.6875 15.234375 7.390625 
Q 20.0625 6.109375 24.8125 6.109375 
Q 31.15625 6.109375 34.5625 8.28125 
Q 37.984375 10.453125 37.984375 14.40625 
Q 37.984375 18.0625 35.515625 20.015625 
Q 33.0625 21.96875 24.703125 23.78125 
L 21.578125 24.515625 
Q 13.234375 26.265625 9.515625 29.90625 
Q 5.8125 33.546875 5.8125 39.890625 
Q 5.8125 47.609375 11.28125 51.796875 
Q 16.75 56 26.8125 56 
Q 31.78125 56 36.171875 55.265625 
Q 40.578125 54.546875 44.28125 53.078125 
z
" id="DejaVuSans-115"/>
      <path d="M 18.3125 70.21875 
L 18.3125 54.6875 
L 36.8125 54.6875 
L 36.8125 47.703125 
L 18.3125 47.703125 
L 18.3125 18.015625 
Q 18.3125 11.328125 20.140625 9.421875 
Q 21.96875 7.515625 27.59375 7.515625 
L 36.8125 7.515625 
L 36.8125 0 
L 27.59375 0 
Q 17.1875 0 13.234375 3.875 
Q 9.28125 7.765625 9.28125 18.015625 
L 9.28125 47.703125 
L 2.6875 47.703125 
L 2.6875 54.6875 
L 9.28125 54.6875 
L 9.28125 70.21875 
z
" id="DejaVuSans-116"/>
      <path id="DejaVuSans-32"/>
      <path d="M 19.734375 29.5 
Q 14.453125 30.671875 12.15625 33.84375 
Q 10.453125 36.078125 10.453125 39.109375 
Q 10.453125 47.40625 18.359375 52.25 
Q 24.609375 56.0625 34.1875 56.0625 
Q 37.890625 56.0625 41.9375 55.46875 
Q 46 54.890625 50.53125 53.71875 
L 48.96875 45.5625 
Q 44.484375 46.96875 40.71875 47.609375 
Q 36.859375 48.25 33.40625 48.25 
Q 27.59375 48.25 23.78125 46 
Q 19.1875 43.3125 19.1875 39.40625 
Q 19.1875 36.8125 21.578125 35.015625 
Q 24.421875 32.859375 30.078125 32.859375 
L 37.640625 32.859375 
L 36.234375 25.4375 
L 29 25.4375 
Q 22.265625 25.4375 18.3125 22.953125 
Q 12.9375 19.578125 12.9375 14.3125 
Q 12.9375 10.984375 15.828125 8.796875 
Q 19.4375 6.0625 26.8125 6.0625 
Q 31.34375 6.0625 35.6875 6.9375 
Q 40.046875 7.859375 43.84375 9.671875 
L 42.1875 1.3125 
Q 37.546875 -0.046875 33.296875 -0.734375 
Q 29.046875 -1.421875 25.140625 -1.421875 
Q 13.53125 -1.421875 8.0625 3.03125 
Q 3.90625 6.453125 3.90625 12.203125 
Q 3.90625 19.96875 9.375 24.75 
Q 13.421875 28.328125 19.734375 29.5 
z
" id="DejaVuSans-Oblique-949"/>
     </defs>
     <g transform="translate(208.393125 323.505312)scale(0.14 -0.14)">
      <use transform="translate(0 0.09375)" xlink:href="#DejaVuSans-84"/>
      <use transform="translate(61.083984 0.09375)" xlink:href="#DejaVuSans-101"/>
      <use transform="translate(122.607422 0.09375)" xlink:href="#DejaVuSans-115"/>
      <use transform="translate(174.707031 0.09375)" xlink:href="#DejaVuSans-116"/>
      <use transform="translate(213.916016 0.09375)" xlink:href="#DejaVuSans-32"/>
      <use transform="translate(245.703125 0.09375)" xlink:href="#DejaVuSans-Oblique-949"/>
     </g>
    </g>
   </g>
   <g id="matplotlib.axis_2">
    <g id="ytick_1">
     <g id="line2d_6">
      <defs>
       <path d="M 0 0 
L -3.5 0 
" id="medc9032738" style="stroke:#000000;stroke-width:0.8;"/>
      </defs>
      <g>
       <use style="stroke:#000000;stroke-width:0.8;" x="50.833125" xlink:href="#medc9032738" y="290.25375"/>
      </g>
     </g>
     <g id="text_7">
      <!-- 0.0 -->
      <g transform="translate(24.749375 294.812812)scale(0.12 -0.12)">
       <use xlink:href="#DejaVuSans-48"/>
       <use x="63.623047" xlink:href="#DejaVuSans-46"/>
       <use x="95.410156" xlink:href="#DejaVuSans-48"/>
      </g>
     </g>
    </g>
    <g id="ytick_2">
     <g id="line2d_7">
      <g>
       <use style="stroke:#000000;stroke-width:0.8;" x="50.833125" xlink:href="#medc9032738" y="237.03135"/>
      </g>
     </g>
     <g id="text_8">
      <!-- 0.2 -->
      <g transform="translate(24.749375 241.590412)scale(0.12 -0.12)">
       <use xlink:href="#DejaVuSans-48"/>
       <use x="63.623047" xlink:href="#DejaVuSans-46"/>
       <use x="95.410156" xlink:href="#DejaVuSans-50"/>
      </g>
     </g>
    </g>
    <g id="ytick_3">
     <g id="line2d_8">
      <g>
       <use style="stroke:#000000;stroke-width:0.8;" x="50.833125" xlink:href="#medc9032738" y="183.80895"/>
      </g>
     </g>
     <g id="text_9">
      <!-- 0.4 -->
      <defs>
       <path d="M 37.796875 64.3125 
L 12.890625 25.390625 
L 37.796875 25.390625 
z
M 35.203125 72.90625 
L 47.609375 72.90625 
L 47.609375 25.390625 
L 58.015625 25.390625 
L 58.015625 17.1875 
L 47.609375 17.1875 
L 47.609375 0 
L 37.796875 0 
L 37.796875 17.1875 
L 4.890625 17.1875 
L 4.890625 26.703125 
z
" id="DejaVuSans-52"/>
      </defs>
      <g transform="translate(24.749375 188.368012)scale(0.12 -0.12)">
       <use xlink:href="#DejaVuSans-48"/>
       <use x="63.623047" xlink:href="#DejaVuSans-46"/>
       <use x="95.410156" xlink:href="#DejaVuSans-52"/>
      </g>
     </g>
    </g>
    <g id="ytick_4">
     <g id="line2d_9">
      <g>
       <use style="stroke:#000000;stroke-width:0.8;" x="50.833125" xlink:href="#medc9032738" y="130.58655"/>
      </g>
     </g>
     <g id="text_10">
      <!-- 0.6 -->
      <defs>
       <path d="M 33.015625 40.375 
Q 26.375 40.375 22.484375 35.828125 
Q 18.609375 31.296875 18.609375 23.390625 
Q 18.609375 15.53125 22.484375 10.953125 
Q 26.375 6.390625 33.015625 6.390625 
Q 39.65625 6.390625 43.53125 10.953125 
Q 47.40625 15.53125 47.40625 23.390625 
Q 47.40625 31.296875 43.53125 35.828125 
Q 39.65625 40.375 33.015625 40.375 
z
M 52.59375 71.296875 
L 52.59375 62.3125 
Q 48.875 64.0625 45.09375 64.984375 
Q 41.3125 65.921875 37.59375 65.921875 
Q 27.828125 65.921875 22.671875 59.328125 
Q 17.53125 52.734375 16.796875 39.40625 
Q 19.671875 43.65625 24.015625 45.921875 
Q 28.375 48.1875 33.59375 48.1875 
Q 44.578125 48.1875 50.953125 41.515625 
Q 57.328125 34.859375 57.328125 23.390625 
Q 57.328125 12.15625 50.6875 5.359375 
Q 44.046875 -1.421875 33.015625 -1.421875 
Q 20.359375 -1.421875 13.671875 8.265625 
Q 6.984375 17.96875 6.984375 36.375 
Q 6.984375 53.65625 15.1875 63.9375 
Q 23.390625 74.21875 37.203125 74.21875 
Q 40.921875 74.21875 44.703125 73.484375 
Q 48.484375 72.75 52.59375 71.296875 
z
" id="DejaVuSans-54"/>
      </defs>
      <g transform="translate(24.749375 135.145612)scale(0.12 -0.12)">
       <use xlink:href="#DejaVuSans-48"/>
       <use x="63.623047" xlink:href="#DejaVuSans-46"/>
       <use x="95.410156" xlink:href="#DejaVuSans-54"/>
      </g>
     </g>
    </g>
    <g id="ytick_5">
     <g id="line2d_10">
      <g>
       <use style="stroke:#000000;stroke-width:0.8;" x="50.833125" xlink:href="#medc9032738" y="77.36415"/>
      </g>
     </g>
     <g id="text_11">
      <!-- 0.8 -->
      <defs>
       <path d="M 31.78125 34.625 
Q 24.75 34.625 20.71875 30.859375 
Q 16.703125 27.09375 16.703125 20.515625 
Q 16.703125 13.921875 20.71875 10.15625 
Q 24.75 6.390625 31.78125 6.390625 
Q 38.8125 6.390625 42.859375 10.171875 
Q 46.921875 13.96875 46.921875 20.515625 
Q 46.921875 27.09375 42.890625 30.859375 
Q 38.875 34.625 31.78125 34.625 
z
M 21.921875 38.8125 
Q 15.578125 40.375 12.03125 44.71875 
Q 8.5 49.078125 8.5 55.328125 
Q 8.5 64.0625 14.71875 69.140625 
Q 20.953125 74.21875 31.78125 74.21875 
Q 42.671875 74.21875 48.875 69.140625 
Q 55.078125 64.0625 55.078125 55.328125 
Q 55.078125 49.078125 51.53125 44.71875 
Q 48 40.375 41.703125 38.8125 
Q 48.828125 37.15625 52.796875 32.3125 
Q 56.78125 27.484375 56.78125 20.515625 
Q 56.78125 9.90625 50.3125 4.234375 
Q 43.84375 -1.421875 31.78125 -1.421875 
Q 19.734375 -1.421875 13.25 4.234375 
Q 6.78125 9.90625 6.78125 20.515625 
Q 6.78125 27.484375 10.78125 32.3125 
Q 14.796875 37.15625 21.921875 38.8125 
z
M 18.3125 54.390625 
Q 18.3125 48.734375 21.84375 45.5625 
Q 25.390625 42.390625 31.78125 42.390625 
Q 38.140625 42.390625 41.71875 45.5625 
Q 45.3125 48.734375 45.3125 54.390625 
Q 45.3125 60.0625 41.71875 63.234375 
Q 38.140625 66.40625 31.78125 66.40625 
Q 25.390625 66.40625 21.84375 63.234375 
Q 18.3125 60.0625 18.3125 54.390625 
z
" id="DejaVuSans-56"/>
      </defs>
      <g transform="translate(24.749375 81.923212)scale(0.12 -0.12)">
       <use xlink:href="#DejaVuSans-48"/>
       <use x="63.623047" xlink:href="#DejaVuSans-46"/>
       <use x="95.410156" xlink:href="#DejaVuSans-56"/>
      </g>
     </g>
    </g>
    <g id="ytick_6">
     <g id="line2d_11">
      <g>
       <use style="stroke:#000000;stroke-width:0.8;" x="50.833125" xlink:href="#medc9032738" y="24.14175"/>
      </g>
     </g>
     <g id="text_12">
      <!-- 1.0 -->
      <g transform="translate(24.749375 28.700812)scale(0.12 -0.12)">
       <use xlink:href="#DejaVuSans-49"/>
       <use x="63.623047" xlink:href="#DejaVuSans-46"/>
       <use x="95.410156" xlink:href="#DejaVuSans-48"/>
      </g>
     </g>
    </g>
    <g id="text_13">
     <!-- P Value -->
     <defs>
      <path d="M 19.671875 64.796875 
L 19.671875 37.40625 
L 32.078125 37.40625 
Q 38.96875 37.40625 42.71875 40.96875 
Q 46.484375 44.53125 46.484375 51.125 
Q 46.484375 57.671875 42.71875 61.234375 
Q 38.96875 64.796875 32.078125 64.796875 
z
M 9.8125 72.90625 
L 32.078125 72.90625 
Q 44.34375 72.90625 50.609375 67.359375 
Q 56.890625 61.8125 56.890625 51.125 
Q 56.890625 40.328125 50.609375 34.8125 
Q 44.34375 29.296875 32.078125 29.296875 
L 19.671875 29.296875 
L 19.671875 0 
L 9.8125 0 
z
" id="DejaVuSans-80"/>
      <path d="M 28.609375 0 
L 0.78125 72.90625 
L 11.078125 72.90625 
L 34.1875 11.53125 
L 57.328125 72.90625 
L 67.578125 72.90625 
L 39.796875 0 
z
" id="DejaVuSans-86"/>
      <path d="M 34.28125 27.484375 
Q 23.390625 27.484375 19.1875 25 
Q 14.984375 22.515625 14.984375 16.5 
Q 14.984375 11.71875 18.140625 8.90625 
Q 21.296875 6.109375 26.703125 6.109375 
Q 34.1875 6.109375 38.703125 11.40625 
Q 43.21875 16.703125 43.21875 25.484375 
L 43.21875 27.484375 
z
M 52.203125 31.203125 
L 52.203125 0 
L 43.21875 0 
L 43.21875 8.296875 
Q 40.140625 3.328125 35.546875 0.953125 
Q 30.953125 -1.421875 24.3125 -1.421875 
Q 15.921875 -1.421875 10.953125 3.296875 
Q 6 8.015625 6 15.921875 
Q 6 25.140625 12.171875 29.828125 
Q 18.359375 34.515625 30.609375 34.515625 
L 43.21875 34.515625 
L 43.21875 35.40625 
Q 43.21875 41.609375 39.140625 45 
Q 35.0625 48.390625 27.6875 48.390625 
Q 23 48.390625 18.546875 47.265625 
Q 14.109375 46.140625 10.015625 43.890625 
L 10.015625 52.203125 
Q 14.9375 54.109375 19.578125 55.046875 
Q 24.21875 56 28.609375 56 
Q 40.484375 56 46.34375 49.84375 
Q 52.203125 43.703125 52.203125 31.203125 
z
" id="DejaVuSans-97"/>
      <path d="M 9.421875 75.984375 
L 18.40625 75.984375 
L 18.40625 0 
L 9.421875 0 
z
" id="DejaVuSans-108"/>
      <path d="M 8.5 21.578125 
L 8.5 54.6875 
L 17.484375 54.6875 
L 17.484375 21.921875 
Q 17.484375 14.15625 20.5 10.265625 
Q 23.53125 6.390625 29.59375 6.390625 
Q 36.859375 6.390625 41.078125 11.03125 
Q 45.3125 15.671875 45.3125 23.6875 
L 45.3125 54.6875 
L 54.296875 54.6875 
L 54.296875 0 
L 45.3125 0 
L 45.3125 8.40625 
Q 42.046875 3.421875 37.71875 1 
Q 33.40625 -1.421875 27.6875 -1.421875 
Q 18.265625 -1.421875 13.375 4.4375 
Q 8.5 10.296875 8.5 21.578125 
z
M 31.109375 56 
z
" id="DejaVuSans-117"/>
     </defs>
     <g transform="translate(17.837813 183.401812)rotate(-90)scale(0.14 -0.14)">
      <use xlink:href="#DejaVuSans-80"/>
      <use x="60.302734" xlink:href="#DejaVuSans-32"/>
      <use x="92.089844" xlink:href="#DejaVuSans-86"/>
      <use x="160.388672" xlink:href="#DejaVuSans-97"/>
      <use x="221.667969" xlink:href="#DejaVuSans-108"/>
      <use x="249.451172" xlink:href="#DejaVuSans-117"/>
      <use x="312.830078" xlink:href="#DejaVuSans-101"/>
     </g>
    </g>
   </g>
   <g id="line2d_12">
    <path clip-path="url(#p104379cc02)" d="M 67.065852 289.009089 
L 74.984256 288.840541 
L 82.902659 289.271153 
L 90.821063 285.576177 
L 98.739466 283.271473 
L 106.65787 277.861458 
L 114.576274 289.250863 
L 122.494677 277.974935 
L 130.413081 238.668949 
L 138.331484 272.451358 
L 146.249888 271.165571 
L 154.168291 206.554092 
L 162.086695 250.10355 
L 170.005098 289.798994 
L 177.923502 268.024823 
L 185.841905 281.54813 
L 193.760309 181.875946 
L 201.678713 233.845072 
L 209.597116 238.668949 
L 217.51552 189.942164 
L 225.433923 238.668949 
L 233.352327 157.19775 
L 241.27073 229.962968 
L 249.189134 217.229175 
L 257.107537 189.942164 
L 265.025941 157.19775 
L 272.944345 193.580396 
L 280.862748 157.19775 
L 288.781152 256.98985 
L 296.699555 198.777874 
L 304.617959 189.942164 
L 312.536362 187.213493 
L 320.454766 251.792512 
L 328.373169 115.617625 
L 336.291573 104.938146 
L 344.209976 157.19775 
L 352.12838 69.879422 
L 360.046784 229.962968 
L 367.965187 91.708988 
L 375.883591 193.580396 
L 383.801994 157.19775 
L 391.720398 62.602988 
" style="fill:none;stroke:#1f77b4;stroke-linecap:square;stroke-width:1.5;"/>
    <defs>
     <path d="M -3 3 
L 3 3 
L 3 -3 
L -3 -3 
z
" id="m1d6c19a356" style="stroke:#1f77b4;stroke-linejoin:miter;"/>
    </defs>
    <g clip-path="url(#p104379cc02)">
     <use style="fill:#1f77b4;stroke:#1f77b4;stroke-linejoin:miter;" x="67.065852" xlink:href="#m1d6c19a356" y="289.009089"/>
     <use style="fill:#1f77b4;stroke:#1f77b4;stroke-linejoin:miter;" x="74.984256" xlink:href="#m1d6c19a356" y="288.840541"/>
     <use style="fill:#1f77b4;stroke:#1f77b4;stroke-linejoin:miter;" x="82.902659" xlink:href="#m1d6c19a356" y="289.271153"/>
     <use style="fill:#1f77b4;stroke:#1f77b4;stroke-linejoin:miter;" x="90.821063" xlink:href="#m1d6c19a356" y="285.576177"/>
     <use style="fill:#1f77b4;stroke:#1f77b4;stroke-linejoin:miter;" x="98.739466" xlink:href="#m1d6c19a356" y="283.271473"/>
     <use style="fill:#1f77b4;stroke:#1f77b4;stroke-linejoin:miter;" x="106.65787" xlink:href="#m1d6c19a356" y="277.861458"/>
     <use style="fill:#1f77b4;stroke:#1f77b4;stroke-linejoin:miter;" x="114.576274" xlink:href="#m1d6c19a356" y="289.250863"/>
     <use style="fill:#1f77b4;stroke:#1f77b4;stroke-linejoin:miter;" x="122.494677" xlink:href="#m1d6c19a356" y="277.974935"/>
     <use style="fill:#1f77b4;stroke:#1f77b4;stroke-linejoin:miter;" x="130.413081" xlink:href="#m1d6c19a356" y="238.668949"/>
     <use style="fill:#1f77b4;stroke:#1f77b4;stroke-linejoin:miter;" x="138.331484" xlink:href="#m1d6c19a356" y="272.451358"/>
     <use style="fill:#1f77b4;stroke:#1f77b4;stroke-linejoin:miter;" x="146.249888" xlink:href="#m1d6c19a356" y="271.165571"/>
     <use style="fill:#1f77b4;stroke:#1f77b4;stroke-linejoin:miter;" x="154.168291" xlink:href="#m1d6c19a356" y="206.554092"/>
     <use style="fill:#1f77b4;stroke:#1f77b4;stroke-linejoin:miter;" x="162.086695" xlink:href="#m1d6c19a356" y="250.10355"/>
     <use style="fill:#1f77b4;stroke:#1f77b4;stroke-linejoin:miter;" x="170.005098" xlink:href="#m1d6c19a356" y="289.798994"/>
     <use style="fill:#1f77b4;stroke:#1f77b4;stroke-linejoin:miter;" x="177.923502" xlink:href="#m1d6c19a356" y="268.024823"/>
     <use style="fill:#1f77b4;stroke:#1f77b4;stroke-linejoin:miter;" x="185.841905" xlink:href="#m1d6c19a356" y="281.54813"/>
     <use style="fill:#1f77b4;stroke:#1f77b4;stroke-linejoin:miter;" x="193.760309" xlink:href="#m1d6c19a356" y="181.875946"/>
     <use style="fill:#1f77b4;stroke:#1f77b4;stroke-linejoin:miter;" x="201.678713" xlink:href="#m1d6c19a356" y="233.845072"/>
     <use style="fill:#1f77b4;stroke:#1f77b4;stroke-linejoin:miter;" x="209.597116" xlink:href="#m1d6c19a356" y="238.668949"/>
     <use style="fill:#1f77b4;stroke:#1f77b4;stroke-linejoin:miter;" x="217.51552" xlink:href="#m1d6c19a356" y="189.942164"/>
     <use style="fill:#1f77b4;stroke:#1f77b4;stroke-linejoin:miter;" x="225.433923" xlink:href="#m1d6c19a356" y="238.668949"/>
     <use style="fill:#1f77b4;stroke:#1f77b4;stroke-linejoin:miter;" x="233.352327" xlink:href="#m1d6c19a356" y="157.19775"/>
     <use style="fill:#1f77b4;stroke:#1f77b4;stroke-linejoin:miter;" x="241.27073" xlink:href="#m1d6c19a356" y="229.962968"/>
     <use style="fill:#1f77b4;stroke:#1f77b4;stroke-linejoin:miter;" x="249.189134" xlink:href="#m1d6c19a356" y="217.229175"/>
     <use style="fill:#1f77b4;stroke:#1f77b4;stroke-linejoin:miter;" x="257.107537" xlink:href="#m1d6c19a356" y="189.942164"/>
     <use style="fill:#1f77b4;stroke:#1f77b4;stroke-linejoin:miter;" x="265.025941" xlink:href="#m1d6c19a356" y="157.19775"/>
     <use style="fill:#1f77b4;stroke:#1f77b4;stroke-linejoin:miter;" x="272.944345" xlink:href="#m1d6c19a356" y="193.580396"/>
     <use style="fill:#1f77b4;stroke:#1f77b4;stroke-linejoin:miter;" x="280.862748" xlink:href="#m1d6c19a356" y="157.19775"/>
     <use style="fill:#1f77b4;stroke:#1f77b4;stroke-linejoin:miter;" x="288.781152" xlink:href="#m1d6c19a356" y="256.98985"/>
     <use style="fill:#1f77b4;stroke:#1f77b4;stroke-linejoin:miter;" x="296.699555" xlink:href="#m1d6c19a356" y="198.777874"/>
     <use style="fill:#1f77b4;stroke:#1f77b4;stroke-linejoin:miter;" x="304.617959" xlink:href="#m1d6c19a356" y="189.942164"/>
     <use style="fill:#1f77b4;stroke:#1f77b4;stroke-linejoin:miter;" x="312.536362" xlink:href="#m1d6c19a356" y="187.213493"/>
     <use style="fill:#1f77b4;stroke:#1f77b4;stroke-linejoin:miter;" x="320.454766" xlink:href="#m1d6c19a356" y="251.792512"/>
     <use style="fill:#1f77b4;stroke:#1f77b4;stroke-linejoin:miter;" x="328.373169" xlink:href="#m1d6c19a356" y="115.617625"/>
     <use style="fill:#1f77b4;stroke:#1f77b4;stroke-linejoin:miter;" x="336.291573" xlink:href="#m1d6c19a356" y="104.938146"/>
     <use style="fill:#1f77b4;stroke:#1f77b4;stroke-linejoin:miter;" x="344.209976" xlink:href="#m1d6c19a356" y="157.19775"/>
     <use style="fill:#1f77b4;stroke:#1f77b4;stroke-linejoin:miter;" x="352.12838" xlink:href="#m1d6c19a356" y="69.879422"/>
     <use style="fill:#1f77b4;stroke:#1f77b4;stroke-linejoin:miter;" x="360.046784" xlink:href="#m1d6c19a356" y="229.962968"/>
     <use style="fill:#1f77b4;stroke:#1f77b4;stroke-linejoin:miter;" x="367.965187" xlink:href="#m1d6c19a356" y="91.708988"/>
     <use style="fill:#1f77b4;stroke:#1f77b4;stroke-linejoin:miter;" x="375.883591" xlink:href="#m1d6c19a356" y="193.580396"/>
     <use style="fill:#1f77b4;stroke:#1f77b4;stroke-linejoin:miter;" x="383.801994" xlink:href="#m1d6c19a356" y="157.19775"/>
     <use style="fill:#1f77b4;stroke:#1f77b4;stroke-linejoin:miter;" x="391.720398" xlink:href="#m1d6c19a356" y="62.602988"/>
    </g>
   </g>
   <g id="line2d_13">
    <path clip-path="url(#p104379cc02)" d="M 82.902659 290.25375 
L 82.902659 24.14175 
" style="fill:none;stroke:#1f77b4;stroke-dasharray:4.44,1.92;stroke-dashoffset:0;stroke-width:1.2;"/>
   </g>
   <g id="line2d_14">
    <path clip-path="url(#p104379cc02)" d="M 67.065852 290.25375 
L 74.984256 290.25375 
L 82.902659 290.25375 
L 90.821063 290.253749 
L 98.739466 290.253735 
L 106.65787 290.253145 
L 114.576274 290.253749 
L 122.494677 290.25375 
L 130.413081 290.251801 
L 138.331484 290.251499 
L 146.249888 290.247626 
L 154.168291 290.253641 
L 162.086695 290.249123 
L 170.005098 289.677167 
L 177.923502 288.965772 
L 185.841905 290.203508 
L 193.760309 289.997829 
L 201.678713 290.241702 
L 209.597116 289.63839 
L 217.51552 289.558323 
L 225.433923 280.093781 
L 233.352327 281.746151 
L 241.27073 210.868383 
L 249.189134 219.428627 
L 257.107537 286.660666 
L 265.025941 170.416855 
L 272.944345 263.698156 
L 280.862748 257.648823 
L 288.781152 259.811537 
L 296.699555 171.321628 
L 304.617959 143.073872 
L 312.536362 157.19775 
L 320.454766 72.877446 
L 328.373169 105.160844 
L 336.291573 70.562188 
L 344.209976 92.243804 
L 352.12838 157.19775 
L 360.046784 124.628803 
L 367.965187 64.322594 
L 375.883591 40.951676 
L 383.801994 34.64435 
L 391.720398 52.218458 
" style="fill:none;stroke:#ff7f0e;stroke-linecap:square;stroke-width:1.5;"/>
    <defs>
     <path d="M 0 3 
C 0.795609 3 1.55874 2.683901 2.12132 2.12132 
C 2.683901 1.55874 3 0.795609 3 0 
C 3 -0.795609 2.683901 -1.55874 2.12132 -2.12132 
C 1.55874 -2.683901 0.795609 -3 0 -3 
C -0.795609 -3 -1.55874 -2.683901 -2.12132 -2.12132 
C -2.683901 -1.55874 -3 -0.795609 -3 0 
C -3 0.795609 -2.683901 1.55874 -2.12132 2.12132 
C -1.55874 2.683901 -0.795609 3 0 3 
z
" id="mdd4938f92a" style="stroke:#ff7f0e;"/>
    </defs>
    <g clip-path="url(#p104379cc02)">
     <use style="fill:#ff7f0e;stroke:#ff7f0e;" x="67.065852" xlink:href="#mdd4938f92a" y="290.25375"/>
     <use style="fill:#ff7f0e;stroke:#ff7f0e;" x="74.984256" xlink:href="#mdd4938f92a" y="290.25375"/>
     <use style="fill:#ff7f0e;stroke:#ff7f0e;" x="82.902659" xlink:href="#mdd4938f92a" y="290.25375"/>
     <use style="fill:#ff7f0e;stroke:#ff7f0e;" x="90.821063" xlink:href="#mdd4938f92a" y="290.253749"/>
     <use style="fill:#ff7f0e;stroke:#ff7f0e;" x="98.739466" xlink:href="#mdd4938f92a" y="290.253735"/>
     <use style="fill:#ff7f0e;stroke:#ff7f0e;" x="106.65787" xlink:href="#mdd4938f92a" y="290.253145"/>
     <use style="fill:#ff7f0e;stroke:#ff7f0e;" x="114.576274" xlink:href="#mdd4938f92a" y="290.253749"/>
     <use style="fill:#ff7f0e;stroke:#ff7f0e;" x="122.494677" xlink:href="#mdd4938f92a" y="290.25375"/>
     <use style="fill:#ff7f0e;stroke:#ff7f0e;" x="130.413081" xlink:href="#mdd4938f92a" y="290.251801"/>
     <use style="fill:#ff7f0e;stroke:#ff7f0e;" x="138.331484" xlink:href="#mdd4938f92a" y="290.251499"/>
     <use style="fill:#ff7f0e;stroke:#ff7f0e;" x="146.249888" xlink:href="#mdd4938f92a" y="290.247626"/>
     <use style="fill:#ff7f0e;stroke:#ff7f0e;" x="154.168291" xlink:href="#mdd4938f92a" y="290.253641"/>
     <use style="fill:#ff7f0e;stroke:#ff7f0e;" x="162.086695" xlink:href="#mdd4938f92a" y="290.249123"/>
     <use style="fill:#ff7f0e;stroke:#ff7f0e;" x="170.005098" xlink:href="#mdd4938f92a" y="289.677167"/>
     <use style="fill:#ff7f0e;stroke:#ff7f0e;" x="177.923502" xlink:href="#mdd4938f92a" y="288.965772"/>
     <use style="fill:#ff7f0e;stroke:#ff7f0e;" x="185.841905" xlink:href="#mdd4938f92a" y="290.203508"/>
     <use style="fill:#ff7f0e;stroke:#ff7f0e;" x="193.760309" xlink:href="#mdd4938f92a" y="289.997829"/>
     <use style="fill:#ff7f0e;stroke:#ff7f0e;" x="201.678713" xlink:href="#mdd4938f92a" y="290.241702"/>
     <use style="fill:#ff7f0e;stroke:#ff7f0e;" x="209.597116" xlink:href="#mdd4938f92a" y="289.63839"/>
     <use style="fill:#ff7f0e;stroke:#ff7f0e;" x="217.51552" xlink:href="#mdd4938f92a" y="289.558323"/>
     <use style="fill:#ff7f0e;stroke:#ff7f0e;" x="225.433923" xlink:href="#mdd4938f92a" y="280.093781"/>
     <use style="fill:#ff7f0e;stroke:#ff7f0e;" x="233.352327" xlink:href="#mdd4938f92a" y="281.746151"/>
     <use style="fill:#ff7f0e;stroke:#ff7f0e;" x="241.27073" xlink:href="#mdd4938f92a" y="210.868383"/>
     <use style="fill:#ff7f0e;stroke:#ff7f0e;" x="249.189134" xlink:href="#mdd4938f92a" y="219.428627"/>
     <use style="fill:#ff7f0e;stroke:#ff7f0e;" x="257.107537" xlink:href="#mdd4938f92a" y="286.660666"/>
     <use style="fill:#ff7f0e;stroke:#ff7f0e;" x="265.025941" xlink:href="#mdd4938f92a" y="170.416855"/>
     <use style="fill:#ff7f0e;stroke:#ff7f0e;" x="272.944345" xlink:href="#mdd4938f92a" y="263.698156"/>
     <use style="fill:#ff7f0e;stroke:#ff7f0e;" x="280.862748" xlink:href="#mdd4938f92a" y="257.648823"/>
     <use style="fill:#ff7f0e;stroke:#ff7f0e;" x="288.781152" xlink:href="#mdd4938f92a" y="259.811537"/>
     <use style="fill:#ff7f0e;stroke:#ff7f0e;" x="296.699555" xlink:href="#mdd4938f92a" y="171.321628"/>
     <use style="fill:#ff7f0e;stroke:#ff7f0e;" x="304.617959" xlink:href="#mdd4938f92a" y="143.073872"/>
     <use style="fill:#ff7f0e;stroke:#ff7f0e;" x="312.536362" xlink:href="#mdd4938f92a" y="157.19775"/>
     <use style="fill:#ff7f0e;stroke:#ff7f0e;" x="320.454766" xlink:href="#mdd4938f92a" y="72.877446"/>
     <use style="fill:#ff7f0e;stroke:#ff7f0e;" x="328.373169" xlink:href="#mdd4938f92a" y="105.160844"/>
     <use style="fill:#ff7f0e;stroke:#ff7f0e;" x="336.291573" xlink:href="#mdd4938f92a" y="70.562188"/>
     <use style="fill:#ff7f0e;stroke:#ff7f0e;" x="344.209976" xlink:href="#mdd4938f92a" y="92.243804"/>
     <use style="fill:#ff7f0e;stroke:#ff7f0e;" x="352.12838" xlink:href="#mdd4938f92a" y="157.19775"/>
     <use style="fill:#ff7f0e;stroke:#ff7f0e;" x="360.046784" xlink:href="#mdd4938f92a" y="124.628803"/>
     <use style="fill:#ff7f0e;stroke:#ff7f0e;" x="367.965187" xlink:href="#mdd4938f92a" y="64.322594"/>
     <use style="fill:#ff7f0e;stroke:#ff7f0e;" x="375.883591" xlink:href="#mdd4938f92a" y="40.951676"/>
     <use style="fill:#ff7f0e;stroke:#ff7f0e;" x="383.801994" xlink:href="#mdd4938f92a" y="34.64435"/>
     <use style="fill:#ff7f0e;stroke:#ff7f0e;" x="391.720398" xlink:href="#mdd4938f92a" y="52.218458"/>
    </g>
   </g>
   <g id="line2d_15">
    <path clip-path="url(#p104379cc02)" d="M 162.086695 290.25375 
L 162.086695 24.14175 
" style="fill:none;stroke:#ff7f0e;stroke-dasharray:4.44,1.92;stroke-dashoffset:0;stroke-width:1.2;"/>
   </g>
   <g id="line2d_16">
    <path clip-path="url(#p104379cc02)" d="M 67.065852 290.25375 
L 74.984256 290.25375 
L 82.902659 290.25375 
L 90.821063 290.25375 
L 98.739466 290.25375 
L 106.65787 290.25375 
L 114.576274 290.25375 
L 122.494677 290.25375 
L 130.413081 290.25375 
L 138.331484 290.25375 
L 146.249888 290.25375 
L 154.168291 290.25375 
L 162.086695 290.25375 
L 170.005098 290.25375 
L 177.923502 290.25375 
L 185.841905 290.25375 
L 193.760309 290.25375 
L 201.678713 290.25375 
L 209.597116 290.25375 
L 217.51552 290.25375 
L 225.433923 290.25375 
L 233.352327 290.25375 
L 241.27073 290.253714 
L 249.189134 290.253704 
L 257.107537 290.253749 
L 265.025941 290.253636 
L 272.944345 290.252489 
L 280.862748 290.251961 
L 288.781152 289.704671 
L 296.699555 289.881632 
L 304.617959 275.465686 
L 312.536362 289.73911 
L 320.454766 289.732945 
L 328.373169 281.993196 
L 336.291573 273.801255 
L 344.209976 269.739165 
L 352.12838 196.920568 
L 360.046784 218.617387 
L 367.965187 90.749452 
L 375.883591 105.087631 
L 383.801994 140.935603 
L 391.720398 181.832291 
" style="fill:none;stroke:#2ca02c;stroke-linecap:square;stroke-width:1.5;"/>
    <defs>
     <path d="M 0 -3 
L -3 3 
L 3 3 
z
" id="mc00198d061" style="stroke:#2ca02c;stroke-linejoin:miter;"/>
    </defs>
    <g clip-path="url(#p104379cc02)">
     <use style="fill:#2ca02c;stroke:#2ca02c;stroke-linejoin:miter;" x="67.065852" xlink:href="#mc00198d061" y="290.25375"/>
     <use style="fill:#2ca02c;stroke:#2ca02c;stroke-linejoin:miter;" x="74.984256" xlink:href="#mc00198d061" y="290.25375"/>
     <use style="fill:#2ca02c;stroke:#2ca02c;stroke-linejoin:miter;" x="82.902659" xlink:href="#mc00198d061" y="290.25375"/>
     <use style="fill:#2ca02c;stroke:#2ca02c;stroke-linejoin:miter;" x="90.821063" xlink:href="#mc00198d061" y="290.25375"/>
     <use style="fill:#2ca02c;stroke:#2ca02c;stroke-linejoin:miter;" x="98.739466" xlink:href="#mc00198d061" y="290.25375"/>
     <use style="fill:#2ca02c;stroke:#2ca02c;stroke-linejoin:miter;" x="106.65787" xlink:href="#mc00198d061" y="290.25375"/>
     <use style="fill:#2ca02c;stroke:#2ca02c;stroke-linejoin:miter;" x="114.576274" xlink:href="#mc00198d061" y="290.25375"/>
     <use style="fill:#2ca02c;stroke:#2ca02c;stroke-linejoin:miter;" x="122.494677" xlink:href="#mc00198d061" y="290.25375"/>
     <use style="fill:#2ca02c;stroke:#2ca02c;stroke-linejoin:miter;" x="130.413081" xlink:href="#mc00198d061" y="290.25375"/>
     <use style="fill:#2ca02c;stroke:#2ca02c;stroke-linejoin:miter;" x="138.331484" xlink:href="#mc00198d061" y="290.25375"/>
     <use style="fill:#2ca02c;stroke:#2ca02c;stroke-linejoin:miter;" x="146.249888" xlink:href="#mc00198d061" y="290.25375"/>
     <use style="fill:#2ca02c;stroke:#2ca02c;stroke-linejoin:miter;" x="154.168291" xlink:href="#mc00198d061" y="290.25375"/>
     <use style="fill:#2ca02c;stroke:#2ca02c;stroke-linejoin:miter;" x="162.086695" xlink:href="#mc00198d061" y="290.25375"/>
     <use style="fill:#2ca02c;stroke:#2ca02c;stroke-linejoin:miter;" x="170.005098" xlink:href="#mc00198d061" y="290.25375"/>
     <use style="fill:#2ca02c;stroke:#2ca02c;stroke-linejoin:miter;" x="177.923502" xlink:href="#mc00198d061" y="290.25375"/>
     <use style="fill:#2ca02c;stroke:#2ca02c;stroke-linejoin:miter;" x="185.841905" xlink:href="#mc00198d061" y="290.25375"/>
     <use style="fill:#2ca02c;stroke:#2ca02c;stroke-linejoin:miter;" x="193.760309" xlink:href="#mc00198d061" y="290.25375"/>
     <use style="fill:#2ca02c;stroke:#2ca02c;stroke-linejoin:miter;" x="201.678713" xlink:href="#mc00198d061" y="290.25375"/>
     <use style="fill:#2ca02c;stroke:#2ca02c;stroke-linejoin:miter;" x="209.597116" xlink:href="#mc00198d061" y="290.25375"/>
     <use style="fill:#2ca02c;stroke:#2ca02c;stroke-linejoin:miter;" x="217.51552" xlink:href="#mc00198d061" y="290.25375"/>
     <use style="fill:#2ca02c;stroke:#2ca02c;stroke-linejoin:miter;" x="225.433923" xlink:href="#mc00198d061" y="290.25375"/>
     <use style="fill:#2ca02c;stroke:#2ca02c;stroke-linejoin:miter;" x="233.352327" xlink:href="#mc00198d061" y="290.25375"/>
     <use style="fill:#2ca02c;stroke:#2ca02c;stroke-linejoin:miter;" x="241.27073" xlink:href="#mc00198d061" y="290.253714"/>
     <use style="fill:#2ca02c;stroke:#2ca02c;stroke-linejoin:miter;" x="249.189134" xlink:href="#mc00198d061" y="290.253704"/>
     <use style="fill:#2ca02c;stroke:#2ca02c;stroke-linejoin:miter;" x="257.107537" xlink:href="#mc00198d061" y="290.253749"/>
     <use style="fill:#2ca02c;stroke:#2ca02c;stroke-linejoin:miter;" x="265.025941" xlink:href="#mc00198d061" y="290.253636"/>
     <use style="fill:#2ca02c;stroke:#2ca02c;stroke-linejoin:miter;" x="272.944345" xlink:href="#mc00198d061" y="290.252489"/>
     <use style="fill:#2ca02c;stroke:#2ca02c;stroke-linejoin:miter;" x="280.862748" xlink:href="#mc00198d061" y="290.251961"/>
     <use style="fill:#2ca02c;stroke:#2ca02c;stroke-linejoin:miter;" x="288.781152" xlink:href="#mc00198d061" y="289.704671"/>
     <use style="fill:#2ca02c;stroke:#2ca02c;stroke-linejoin:miter;" x="296.699555" xlink:href="#mc00198d061" y="289.881632"/>
     <use style="fill:#2ca02c;stroke:#2ca02c;stroke-linejoin:miter;" x="304.617959" xlink:href="#mc00198d061" y="275.465686"/>
     <use style="fill:#2ca02c;stroke:#2ca02c;stroke-linejoin:miter;" x="312.536362" xlink:href="#mc00198d061" y="289.73911"/>
     <use style="fill:#2ca02c;stroke:#2ca02c;stroke-linejoin:miter;" x="320.454766" xlink:href="#mc00198d061" y="289.732945"/>
     <use style="fill:#2ca02c;stroke:#2ca02c;stroke-linejoin:miter;" x="328.373169" xlink:href="#mc00198d061" y="281.993196"/>
     <use style="fill:#2ca02c;stroke:#2ca02c;stroke-linejoin:miter;" x="336.291573" xlink:href="#mc00198d061" y="273.801255"/>
     <use style="fill:#2ca02c;stroke:#2ca02c;stroke-linejoin:miter;" x="344.209976" xlink:href="#mc00198d061" y="269.739165"/>
     <use style="fill:#2ca02c;stroke:#2ca02c;stroke-linejoin:miter;" x="352.12838" xlink:href="#mc00198d061" y="196.920568"/>
     <use style="fill:#2ca02c;stroke:#2ca02c;stroke-linejoin:miter;" x="360.046784" xlink:href="#mc00198d061" y="218.617387"/>
     <use style="fill:#2ca02c;stroke:#2ca02c;stroke-linejoin:miter;" x="367.965187" xlink:href="#mc00198d061" y="90.749452"/>
     <use style="fill:#2ca02c;stroke:#2ca02c;stroke-linejoin:miter;" x="375.883591" xlink:href="#mc00198d061" y="105.087631"/>
     <use style="fill:#2ca02c;stroke:#2ca02c;stroke-linejoin:miter;" x="383.801994" xlink:href="#mc00198d061" y="140.935603"/>
     <use style="fill:#2ca02c;stroke:#2ca02c;stroke-linejoin:miter;" x="391.720398" xlink:href="#mc00198d061" y="181.832291"/>
    </g>
   </g>
   <g id="line2d_17">
    <path clip-path="url(#p104379cc02)" d="M 288.781152 290.25375 
L 288.781152 24.14175 
" style="fill:none;stroke:#2ca02c;stroke-dasharray:4.44,1.92;stroke-dashoffset:0;stroke-width:1.2;"/>
   </g>
   <g id="line2d_18">
    <path clip-path="url(#p104379cc02)" d="M 50.833125 276.94815 
L 407.953125 276.94815 
" style="fill:none;stroke:#000000;stroke-dasharray:4.44,1.92;stroke-dashoffset:0;stroke-width:1.2;"/>
   </g>
   <g id="patch_3">
    <path d="M 50.833125 290.25375 
L 50.833125 24.14175 
" style="fill:none;stroke:#000000;stroke-linecap:square;stroke-linejoin:miter;stroke-width:0.8;"/>
   </g>
   <g id="patch_4">
    <path d="M 407.953125 290.25375 
L 407.953125 24.14175 
" style="fill:none;stroke:#000000;stroke-linecap:square;stroke-linejoin:miter;stroke-width:0.8;"/>
   </g>
   <g id="patch_5">
    <path d="M 50.833125 290.25375 
L 407.953125 290.25375 
" style="fill:none;stroke:#000000;stroke-linecap:square;stroke-linejoin:miter;stroke-width:0.8;"/>
   </g>
   <g id="patch_6">
    <path d="M 50.833125 24.14175 
L 407.953125 24.14175 
" style="fill:none;stroke:#000000;stroke-linecap:square;stroke-linejoin:miter;stroke-width:0.8;"/>
   </g>
   <g id="text_14">
    <!-- iSVT4 -->
    <defs>
     <path d="M 9.421875 54.6875 
L 18.40625 54.6875 
L 18.40625 0 
L 9.421875 0 
z
M 9.421875 75.984375 
L 18.40625 75.984375 
L 18.40625 64.59375 
L 9.421875 64.59375 
z
" id="DejaVuSans-105"/>
     <path d="M 53.515625 70.515625 
L 53.515625 60.890625 
Q 47.90625 63.578125 42.921875 64.890625 
Q 37.9375 66.21875 33.296875 66.21875 
Q 25.25 66.21875 20.875 63.09375 
Q 16.5 59.96875 16.5 54.203125 
Q 16.5 49.359375 19.40625 46.890625 
Q 22.3125 44.4375 30.421875 42.921875 
L 36.375 41.703125 
Q 47.40625 39.59375 52.65625 34.296875 
Q 57.90625 29 57.90625 20.125 
Q 57.90625 9.515625 50.796875 4.046875 
Q 43.703125 -1.421875 29.984375 -1.421875 
Q 24.8125 -1.421875 18.96875 -0.25 
Q 13.140625 0.921875 6.890625 3.21875 
L 6.890625 13.375 
Q 12.890625 10.015625 18.65625 8.296875 
Q 24.421875 6.59375 29.984375 6.59375 
Q 38.421875 6.59375 43.015625 9.90625 
Q 47.609375 13.234375 47.609375 19.390625 
Q 47.609375 24.75 44.3125 27.78125 
Q 41.015625 30.8125 33.5 32.328125 
L 27.484375 33.5 
Q 16.453125 35.6875 11.515625 40.375 
Q 6.59375 45.0625 6.59375 53.421875 
Q 6.59375 63.09375 13.40625 68.65625 
Q 20.21875 74.21875 32.171875 74.21875 
Q 37.3125 74.21875 42.625 73.28125 
Q 47.953125 72.359375 53.515625 70.515625 
z
" id="DejaVuSans-83"/>
    </defs>
    <g transform="translate(208.918125 18.14175)scale(0.144 -0.144)">
     <use xlink:href="#DejaVuSans-105"/>
     <use x="27.783203" xlink:href="#DejaVuSans-83"/>
     <use x="91.259766" xlink:href="#DejaVuSans-86"/>
     <use x="159.667969" xlink:href="#DejaVuSans-84"/>
     <use x="220.751953" xlink:href="#DejaVuSans-52"/>
    </g>
   </g>
   <g id="legend_1">
    <g id="patch_7">
     <path d="M 185.713125 86.583 
L 273.073125 86.583 
Q 275.473125 86.583 275.473125 84.183 
L 275.473125 32.54175 
Q 275.473125 30.14175 273.073125 30.14175 
L 185.713125 30.14175 
Q 183.313125 30.14175 183.313125 32.54175 
L 183.313125 84.183 
Q 183.313125 86.583 185.713125 86.583 
z
" style="fill:#ffffff;opacity:0.8;stroke:#cccccc;stroke-linejoin:miter;"/>
    </g>
    <g id="line2d_19">
     <path d="M 188.113125 39.859875 
L 212.113125 39.859875 
" style="fill:none;stroke:#1f77b4;stroke-linecap:square;stroke-width:1.5;"/>
    </g>
    <g id="line2d_20">
     <g>
      <use style="fill:#1f77b4;stroke:#1f77b4;stroke-linejoin:miter;" x="200.113125" xlink:href="#m1d6c19a356" y="39.859875"/>
     </g>
    </g>
    <g id="text_15">
     <!-- $\epsilon_0$ = 0.2 -->
     <defs>
      <path d="M 10.59375 45.40625 
L 73.1875 45.40625 
L 73.1875 37.203125 
L 10.59375 37.203125 
z
M 10.59375 25.484375 
L 73.1875 25.484375 
L 73.1875 17.1875 
L 10.59375 17.1875 
z
" id="DejaVuSans-61"/>
     </defs>
     <g transform="translate(221.713125 44.059875)scale(0.12 -0.12)">
      <use transform="translate(0 0.78125)" xlink:href="#DejaVuSans-Oblique-949"/>
      <use transform="translate(54.052734 -15.625)scale(0.7)" xlink:href="#DejaVuSans-48"/>
      <use transform="translate(101.323242 0.78125)" xlink:href="#DejaVuSans-32"/>
      <use transform="translate(133.110352 0.78125)" xlink:href="#DejaVuSans-61"/>
      <use transform="translate(216.899414 0.78125)" xlink:href="#DejaVuSans-32"/>
      <use transform="translate(248.686523 0.78125)" xlink:href="#DejaVuSans-48"/>
      <use transform="translate(312.30957 0.78125)" xlink:href="#DejaVuSans-46"/>
      <use transform="translate(344.018555 0.78125)" xlink:href="#DejaVuSans-50"/>
     </g>
    </g>
    <g id="line2d_21">
     <path d="M 188.113125 57.473625 
L 212.113125 57.473625 
" style="fill:none;stroke:#ff7f0e;stroke-linecap:square;stroke-width:1.5;"/>
    </g>
    <g id="line2d_22">
     <g>
      <use style="fill:#ff7f0e;stroke:#ff7f0e;" x="200.113125" xlink:href="#mdd4938f92a" y="57.473625"/>
     </g>
    </g>
    <g id="text_16">
     <!-- $\epsilon_0$ = 0.7 -->
     <defs>
      <path d="M 8.203125 72.90625 
L 55.078125 72.90625 
L 55.078125 68.703125 
L 28.609375 0 
L 18.3125 0 
L 43.21875 64.59375 
L 8.203125 64.59375 
z
" id="DejaVuSans-55"/>
     </defs>
     <g transform="translate(221.713125 61.673625)scale(0.12 -0.12)">
      <use transform="translate(0 0.78125)" xlink:href="#DejaVuSans-Oblique-949"/>
      <use transform="translate(54.052734 -15.625)scale(0.7)" xlink:href="#DejaVuSans-48"/>
      <use transform="translate(101.323242 0.78125)" xlink:href="#DejaVuSans-32"/>
      <use transform="translate(133.110352 0.78125)" xlink:href="#DejaVuSans-61"/>
      <use transform="translate(216.899414 0.78125)" xlink:href="#DejaVuSans-32"/>
      <use transform="translate(248.686523 0.78125)" xlink:href="#DejaVuSans-48"/>
      <use transform="translate(312.30957 0.78125)" xlink:href="#DejaVuSans-46"/>
      <use transform="translate(343.987305 0.78125)" xlink:href="#DejaVuSans-55"/>
     </g>
    </g>
    <g id="line2d_23">
     <path d="M 188.113125 75.087375 
L 212.113125 75.087375 
" style="fill:none;stroke:#2ca02c;stroke-linecap:square;stroke-width:1.5;"/>
    </g>
    <g id="line2d_24">
     <g>
      <use style="fill:#2ca02c;stroke:#2ca02c;stroke-linejoin:miter;" x="200.113125" xlink:href="#mc00198d061" y="75.087375"/>
     </g>
    </g>
    <g id="text_17">
     <!-- $\epsilon_0$ = 1.5 -->
     <g transform="translate(221.713125 79.287375)scale(0.12 -0.12)">
      <use transform="translate(0 0.09375)" xlink:href="#DejaVuSans-Oblique-949"/>
      <use transform="translate(54.052734 -16.3125)scale(0.7)" xlink:href="#DejaVuSans-48"/>
      <use transform="translate(101.323242 0.09375)" xlink:href="#DejaVuSans-32"/>
      <use transform="translate(133.110352 0.09375)" xlink:href="#DejaVuSans-61"/>
      <use transform="translate(216.899414 0.09375)" xlink:href="#DejaVuSans-32"/>
      <use transform="translate(248.686523 0.09375)" xlink:href="#DejaVuSans-49"/>
      <use transform="translate(312.30957 0.09375)" xlink:href="#DejaVuSans-46"/>
      <use transform="translate(344.09668 0.09375)" xlink:href="#DejaVuSans-53"/>
     </g>
    </g>
   </g>
  </g>
 </g>
 <defs>
  <clipPath id="p104379cc02">
   <rect height="266.112" width="357.12" x="50.833125" y="24.14175"/>
  </clipPath>
 </defs>
</svg>
